<svg width="115" height="24" viewBox="0 0 115 24" fill="none" xmlns="http://www.w3.org/2000/svg">
<path d="M18.3623 17.5878C17.4686 17.3412 16.7548 17.0292 16.2217 16.651L17.26 14.5812C17.7791 14.9296 18.4026 15.2094 19.1304 15.4196C19.8581 15.6306 20.5753 15.7357 21.2817 15.7357C22.8958 15.7357 23.7033 15.307 23.7033 14.4505C23.7033 14.0441 23.4979 13.7611 23.0872 13.6005C22.6765 13.4408 22.0169 13.2885 21.1084 13.1429C20.1571 12.998 19.3817 12.8309 18.7837 12.6422C18.1849 12.4535 17.6666 12.1233 17.2271 11.6507C16.7868 11.179 16.5675 10.5219 16.5675 9.67942C16.5675 8.57542 17.025 7.69322 17.9409 7.03198C18.856 6.37156 20.0923 6.04053 21.6497 6.04053C22.4424 6.04053 23.235 6.13156 24.0285 6.3128C24.8212 6.49487 25.4701 6.73735 25.9745 7.04273L24.9362 9.11253C23.9554 8.53156 22.8531 8.24108 21.6275 8.24108C20.8348 8.24108 20.2327 8.36108 19.822 8.60025C19.4113 8.84025 19.2059 9.15556 19.2059 9.54784C19.2059 9.98398 19.4253 10.2927 19.8655 10.4739C20.305 10.656 20.986 10.8265 21.9093 10.9862C22.8317 11.1318 23.5883 11.299 24.1797 11.4877C24.7703 11.6764 25.2788 11.9958 25.7043 12.446C26.1289 12.8963 26.3425 13.5351 26.3425 14.3636C26.3425 15.4527 25.8735 16.3241 24.937 16.9779C23.9998 17.6317 22.7241 17.9586 21.1092 17.9586C20.1719 17.9586 19.2569 17.8353 18.3631 17.5878H18.3623Z" fill="#F7F7F7"/>
<path d="M90.1304 17.2113C89.2506 16.7214 88.5614 16.0295 88.0604 15.1365C87.5601 14.2427 87.3096 13.2132 87.3096 12.0463C87.3096 10.8794 87.5601 9.84578 88.0604 8.94537C88.5614 8.04495 89.2506 7.34978 90.1304 6.85985C91.0101 6.36992 92.0073 6.12495 93.1228 6.12495C94.6671 6.12495 95.8902 6.64385 96.7905 7.68081V1.82812H99.4716V17.9594H96.9186V16.3051C96.4759 16.8521 95.9288 17.2634 95.2774 17.5365C94.6269 17.8096 93.9081 17.947 93.122 17.947C92.0065 17.947 91.0093 17.7021 90.1295 17.2121L90.1304 17.2113ZM90.9887 9.43116C90.353 10.0932 90.0342 10.9655 90.0342 12.0463C90.0342 13.1272 90.353 13.9986 90.9887 14.6615C91.6254 15.3244 92.4369 15.6554 93.4235 15.6554C94.0666 15.6554 94.6457 15.5073 95.1608 15.2127C95.6758 14.9172 96.0832 14.496 96.3831 13.9481C96.6837 13.4003 96.8332 12.7663 96.8332 12.0463C96.8332 11.3263 96.6829 10.6916 96.3831 10.1445C96.0824 9.59668 95.675 9.17544 95.1608 8.87999C94.6457 8.58454 94.0666 8.43723 93.4235 8.43723C92.4369 8.43723 91.6254 8.76826 90.9887 9.43116Z" fill="#F7F7F7"/>
<path d="M37.4785 6.78872C38.3582 7.27865 39.0474 7.97051 39.5485 8.86348C40.0487 9.75727 40.2993 10.7868 40.2993 11.9537C40.2993 13.1206 40.0487 14.1542 39.5485 15.0547C39.0474 15.9551 38.3582 16.6502 37.4785 17.1402C36.5987 17.6301 35.6015 17.8751 34.486 17.8751C32.9417 17.8751 31.7186 17.3562 30.8183 16.3192V22.1727H28.1372V6.04224H30.6902V7.69658C31.133 7.14955 31.68 6.73824 32.3314 6.46513C32.982 6.19203 33.7007 6.05465 34.4868 6.05465C35.6023 6.05465 36.5996 6.29962 37.4793 6.78955H37.4785V6.78872ZM36.6201 14.568C37.2559 13.906 37.5746 13.0337 37.5746 11.9529C37.5746 10.872 37.2559 10.0006 36.6201 9.33769C35.9835 8.67479 35.1719 8.34375 34.1854 8.34375C33.5422 8.34375 32.9631 8.49189 32.4481 8.78651C31.933 9.08196 31.5256 9.5032 31.2258 10.0511C30.9251 10.5989 30.7756 11.2329 30.7756 11.9529C30.7756 12.6729 30.926 13.3076 31.2258 13.8547C31.5264 14.4025 31.9338 14.8238 32.4481 15.1192C32.9631 15.4147 33.5422 15.562 34.1854 15.562C35.1719 15.562 35.9835 15.2309 36.6201 14.568Z" fill="#F7F7F7"/>
<path d="M45.1604 17.1973C44.224 16.69 43.4929 15.9824 42.968 15.0754C42.4423 14.1683 42.1794 13.1421 42.1794 11.9959C42.1794 10.8497 42.4423 9.82683 42.968 8.92724C43.4937 8.02765 44.224 7.3242 45.1604 6.81607C46.096 6.30876 47.1474 6.05469 48.3147 6.05469C49.4819 6.05469 50.5539 6.30876 51.4903 6.81607C52.4259 7.3242 53.157 8.02765 53.6827 8.92724C54.2084 9.82683 54.4713 10.8497 54.4713 11.9959C54.4713 13.1421 54.2084 14.1692 53.6827 15.0754C53.157 15.9824 52.4259 16.69 51.4903 17.1973C50.5539 17.7054 49.4951 17.9595 48.3147 17.9595C47.1343 17.9595 46.0968 17.7054 45.1604 17.1973ZM50.7165 14.5689C51.3597 13.9068 51.6817 13.0345 51.6817 11.9537C51.6817 10.8729 51.3597 10.0014 50.7165 9.33855C50.0734 8.67565 49.2577 8.34462 48.2712 8.34462C47.2846 8.34462 46.4731 8.67648 45.8364 9.33855C45.1998 10.0014 44.8819 10.8729 44.8819 11.9537C44.8819 13.0345 45.1998 13.906 45.8364 14.5689C46.4722 15.2318 47.2846 15.5628 48.2712 15.5628C49.2577 15.5628 50.0726 15.2318 50.7165 14.5689Z" fill="#F7F7F7"/>
<path d="M104.29 17.1973C103.354 16.69 102.623 15.9824 102.098 15.0754C101.572 14.1683 101.309 13.1421 101.309 11.9959C101.309 10.8497 101.572 9.82683 102.098 8.92724C102.624 8.02765 103.354 7.3242 104.29 6.81607C105.226 6.30876 106.277 6.05469 107.445 6.05469C108.612 6.05469 109.684 6.30876 110.62 6.81607C111.556 7.3242 112.287 8.02765 112.813 8.92724C113.338 9.82683 113.601 10.8497 113.601 11.9959C113.601 13.1421 113.338 14.1692 112.813 15.0754C112.287 15.9824 111.556 16.69 110.62 17.1973C109.684 17.7054 108.625 17.9595 107.445 17.9595C106.264 17.9595 105.227 17.7054 104.29 17.1973ZM109.846 14.5689C110.49 13.9068 110.812 13.0345 110.812 11.9537C110.812 10.8729 110.49 10.0014 109.846 9.33855C109.203 8.67565 108.388 8.34462 107.401 8.34462C106.415 8.34462 105.603 8.67648 104.966 9.33855C104.33 10.0014 104.012 10.8729 104.012 11.9537C104.012 13.0345 104.33 13.906 104.966 14.5689C105.602 15.2318 106.415 15.5628 107.401 15.5628C108.388 15.5628 109.202 15.2318 109.846 14.5689Z" fill="#F7F7F7"/>
<path d="M62.9362 6.05382V8.62596C62.707 8.58293 62.5 8.56141 62.3144 8.56141C61.2704 8.56141 60.4555 8.86762 59.869 9.48003C59.2825 10.0924 58.9893 10.9746 58.9893 12.1275V17.9595H56.3081V6.04224H58.8603V7.86955C59.6324 6.65962 60.9911 6.05465 62.9354 6.05465H62.9362V6.05382Z" fill="#F7F7F7"/>
<path d="M73.2319 17.1765C72.9157 17.4372 72.5304 17.6333 72.0778 17.7633C71.6244 17.894 71.1463 17.9586 70.6428 17.9586C69.377 17.9586 68.3986 17.6251 67.7086 16.9588C67.0178 16.2926 66.6728 15.3211 66.6728 14.0457V8.65816H64.7737V6.06782H66.6728V3.63306H69.3696V6.06782H72.4549V8.65816H69.3696V13.9812C69.3696 14.5464 69.5059 14.9776 69.7795 15.2747C70.0522 15.5718 70.4481 15.72 70.9664 15.72C71.5702 15.72 72.0737 15.5611 72.477 15.2416L73.2319 17.1765Z" fill="#F7F7F7"/>
<path d="M85.472 6.03809V17.9553H82.919V16.3341C82.4902 16.853 81.9538 17.2527 81.3098 17.5333C80.6667 17.8138 79.9726 17.9545 79.2292 17.9545C77.6988 17.9545 76.4946 17.5258 75.6149 16.6684C74.7351 15.8111 74.2957 14.5399 74.2957 12.8541V6.03809H76.9768V12.4875C76.9768 13.5244 77.2093 14.2991 77.6742 14.8105C78.1391 15.3219 78.8004 15.5777 79.6579 15.5777C80.6157 15.5777 81.3772 15.2789 81.9423 14.6806C82.5075 14.0831 82.7892 13.2215 82.7892 12.0977V6.03809H85.472Z" fill="#F7F7F7"/>
<path d="M14.6986 12.744C14.729 12.4998 14.7446 12.2516 14.7446 11.9991C14.7446 11.4844 14.6797 10.9854 14.5581 10.5095C13.9018 7.93984 11.5854 6.04053 8.8303 6.04053C6.07523 6.04053 3.7588 7.93984 3.10248 10.5095C2.98091 10.9854 2.91602 11.4844 2.91602 11.9991C2.91602 12.2516 2.93162 12.4998 2.96202 12.744C3.32591 15.6827 5.81484 17.9578 8.8303 17.9578C11.4063 17.9578 13.5987 16.2968 14.4094 13.9804H11.9599C11.3061 15.0273 10.1487 15.7233 8.8303 15.7233C7.04205 15.7233 5.55034 14.4438 5.2078 12.744H14.6986ZM5.44191 10.5095C6.01198 9.19446 7.31477 8.27501 8.8303 8.27501C10.3458 8.27501 11.6486 9.19446 12.2187 10.5095H5.44191Z" fill="#F7F7F7"/>
<path d="M1.60593 14.634C2.12261 16.8909 3.72768 18.8456 6.04904 19.6972C8.3704 20.548 10.847 20.0895 12.6829 18.6958C11.4097 21.4831 8.20447 22.8652 5.29086 21.7968C2.37808 20.7284 0.80422 17.5935 1.60676 14.634H1.60593Z" fill="#04EA91"/>
<path d="M16.0547 9.36242C15.5381 7.10559 13.933 5.15083 11.6116 4.29924C9.29028 3.44849 6.81368 3.90697 4.97778 5.30062C6.251 2.51331 9.45621 1.13124 12.3698 2.19966C15.2826 3.26807 16.8565 6.40297 16.0539 9.36242H16.0547Z" fill="#04EA91"/>
</svg>
